<svg width="32" height="32" viewBox="0 0 32 32" fill="none" xmlns="http://www.w3.org/2000/svg">
<path d="M31.1768 30.2168L31.3536 30.04L31.1768 29.8632L17.3136 16L31.1768 2.13677L31.3536 1.96L31.1768 1.78322L30.2168 0.823223L30.04 0.646447L29.8632 0.823223L16 14.6864L2.13677 0.823223L1.96 0.646447L1.78322 0.823223L0.823223 1.78322L0.646447 1.96L0.823223 2.13677L14.6864 16L0.823223 29.8632L0.646447 30.04L0.823223 30.2168L1.78322 31.1768L1.96 31.3536L2.13677 31.1768L16 17.3136L29.8632 31.1768L30.04 31.3536L30.2168 31.1768L31.1768 30.2168Z" fill="#6F6F6F" stroke="#686868" stroke-width="0.5"/>
</svg>
